<?xml version="1.0" encoding="UTF-8"?><svg xmlns="http://www.w3.org/2000/svg" xmlns:xlink="http://www.w3.org/1999/xlink" fill-opacity="1" color-rendering="auto" color-interpolation="auto" text-rendering="auto" stroke="black" stroke-linecap="square" width="434" stroke-miterlimit="10" shape-rendering="auto" stroke-opacity="1" fill="black" stroke-dasharray="none" font-weight="normal" stroke-width="1" height="407" font-family="'Dialog'" font-style="normal" stroke-linejoin="miter" font-size="12px" stroke-dashoffset="0" image-rendering="auto">
  <!--Generated by ySVG 2.5-->
  <defs id="genericDefs"/>
  <g>
    <defs id="defs1">
      <linearGradient x1="24" gradientUnits="userSpaceOnUse" x2="44" y1="-12" y2="-12" id="linearGradient1" spreadMethod="reflect">
        <stop stop-opacity="1" stop-color="rgb(204,153,255)" offset="0%"/>
        <stop stop-opacity="1" stop-color="rgb(204,153,255)" offset="100%"/>
      </linearGradient>
      <linearGradient x1="20.6667" gradientUnits="userSpaceOnUse" x2="54" y1="-85.6667" y2="-85.6667" id="linearGradient2" spreadMethod="reflect">
        <stop stop-opacity="1" stop-color="rgb(204,153,255)" offset="0%"/>
        <stop stop-opacity="1" stop-color="rgb(204,153,255)" offset="100%"/>
      </linearGradient>
      <linearGradient x1="83" gradientUnits="userSpaceOnUse" x2="103" y1="-12" y2="-12" id="linearGradient3" spreadMethod="reflect">
        <stop stop-opacity="1" stop-color="rgb(204,153,255)" offset="0%"/>
        <stop stop-opacity="1" stop-color="rgb(204,153,255)" offset="100%"/>
      </linearGradient>
      <linearGradient x1="24" gradientUnits="userSpaceOnUse" x2="44" y1="27.3333" y2="27.3333" id="linearGradient4" spreadMethod="reflect">
        <stop stop-opacity="1" stop-color="rgb(255,204,0)" offset="0%"/>
        <stop stop-opacity="1" stop-color="rgb(204,153,255)" offset="100%"/>
      </linearGradient>
      <linearGradient x1="78.3333" gradientUnits="userSpaceOnUse" x2="103" y1="27.3333" y2="27.3333" id="linearGradient5" spreadMethod="reflect">
        <stop stop-opacity="1" stop-color="rgb(255,204,0)" offset="0%"/>
        <stop stop-opacity="1" stop-color="rgb(204,153,255)" offset="100%"/>
      </linearGradient>
      <linearGradient x1="83" gradientUnits="userSpaceOnUse" x2="103" y1="66.6667" y2="66.6667" id="linearGradient6" spreadMethod="reflect">
        <stop stop-opacity="1" stop-color="rgb(255,204,0)" offset="0%"/>
        <stop stop-opacity="1" stop-color="rgb(204,153,255)" offset="100%"/>
      </linearGradient>
      <linearGradient x1="130" gradientUnits="userSpaceOnUse" x2="150" y1="27.3333" y2="27.3333" id="linearGradient7" spreadMethod="reflect">
        <stop stop-opacity="1" stop-color="rgb(255,204,0)" offset="0%"/>
        <stop stop-opacity="1" stop-color="rgb(204,153,255)" offset="100%"/>
      </linearGradient>
      <linearGradient x1="135.6667" gradientUnits="userSpaceOnUse" x2="167" y1="66.6667" y2="66.6667" id="linearGradient8" spreadMethod="reflect">
        <stop stop-opacity="1" stop-color="rgb(255,204,0)" offset="0%"/>
        <stop stop-opacity="1" stop-color="rgb(204,153,255)" offset="100%"/>
      </linearGradient>
      <linearGradient x1="290.75" gradientUnits="userSpaceOnUse" x2="310.75" y1="27.3333" y2="27.3333" id="linearGradient9" spreadMethod="reflect">
        <stop stop-opacity="1" stop-color="rgb(255,204,0)" offset="0%"/>
        <stop stop-opacity="1" stop-color="rgb(204,153,255)" offset="100%"/>
      </linearGradient>
      <linearGradient x1="226.6667" gradientUnits="userSpaceOnUse" x2="260" y1="66.6667" y2="66.6667" id="linearGradient10" spreadMethod="reflect">
        <stop stop-opacity="1" stop-color="rgb(255,204,0)" offset="0%"/>
        <stop stop-opacity="1" stop-color="rgb(204,153,255)" offset="100%"/>
      </linearGradient>
      <linearGradient x1="130" gradientUnits="userSpaceOnUse" x2="150" y1="106" y2="106" id="linearGradient11" spreadMethod="reflect">
        <stop stop-opacity="1" stop-color="rgb(255,204,0)" offset="0%"/>
        <stop stop-opacity="1" stop-color="rgb(204,153,255)" offset="100%"/>
      </linearGradient>
      <linearGradient x1="130" gradientUnits="userSpaceOnUse" x2="150" y1="183" y2="183" id="linearGradient12" spreadMethod="reflect">
        <stop stop-opacity="1" stop-color="rgb(255,204,0)" offset="0%"/>
        <stop stop-opacity="1" stop-color="rgb(204,153,255)" offset="100%"/>
      </linearGradient>
      <linearGradient x1="130" gradientUnits="userSpaceOnUse" x2="150" y1="144.5" y2="144.5" id="linearGradient13" spreadMethod="reflect">
        <stop stop-opacity="1" stop-color="rgb(255,204,0)" offset="0%"/>
        <stop stop-opacity="1" stop-color="rgb(204,153,255)" offset="100%"/>
      </linearGradient>
      <linearGradient x1="130" gradientUnits="userSpaceOnUse" x2="150" y1="221.5" y2="221.5" id="linearGradient14" spreadMethod="reflect">
        <stop stop-opacity="1" stop-color="rgb(255,204,0)" offset="0%"/>
        <stop stop-opacity="1" stop-color="rgb(204,153,255)" offset="100%"/>
      </linearGradient>
      <linearGradient x1="168" gradientUnits="userSpaceOnUse" x2="188" y1="260" y2="260" id="linearGradient15" spreadMethod="reflect">
        <stop stop-opacity="1" stop-color="rgb(255,204,0)" offset="0%"/>
        <stop stop-opacity="1" stop-color="rgb(204,153,255)" offset="100%"/>
      </linearGradient>
      <linearGradient x1="209" gradientUnits="userSpaceOnUse" x2="229" y1="260" y2="260" id="linearGradient16" spreadMethod="reflect">
        <stop stop-opacity="1" stop-color="rgb(255,204,0)" offset="0%"/>
        <stop stop-opacity="1" stop-color="rgb(204,153,255)" offset="100%"/>
      </linearGradient>
      <linearGradient x1="220" gradientUnits="userSpaceOnUse" x2="240" y1="106" y2="106" id="linearGradient17" spreadMethod="reflect">
        <stop stop-opacity="1" stop-color="rgb(255,204,0)" offset="0%"/>
        <stop stop-opacity="1" stop-color="rgb(204,153,255)" offset="100%"/>
      </linearGradient>
      <linearGradient x1="220" gradientUnits="userSpaceOnUse" x2="240" y1="144.5" y2="144.5" id="linearGradient18" spreadMethod="reflect">
        <stop stop-opacity="1" stop-color="rgb(255,204,0)" offset="0%"/>
        <stop stop-opacity="1" stop-color="rgb(204,153,255)" offset="100%"/>
      </linearGradient>
      <linearGradient x1="220" gradientUnits="userSpaceOnUse" x2="240" y1="183" y2="183" id="linearGradient19" spreadMethod="reflect">
        <stop stop-opacity="1" stop-color="rgb(255,204,0)" offset="0%"/>
        <stop stop-opacity="1" stop-color="rgb(204,153,255)" offset="100%"/>
      </linearGradient>
      <linearGradient x1="297.4167" gradientUnits="userSpaceOnUse" x2="330.75" y1="66.6667" y2="66.6667" id="linearGradient20" spreadMethod="reflect">
        <stop stop-opacity="1" stop-color="rgb(255,204,0)" offset="0%"/>
        <stop stop-opacity="1" stop-color="rgb(204,153,255)" offset="100%"/>
      </linearGradient>
      <linearGradient x1="290.75" gradientUnits="userSpaceOnUse" x2="310.75" y1="106" y2="106" id="linearGradient21" spreadMethod="reflect">
        <stop stop-opacity="1" stop-color="rgb(255,204,0)" offset="0%"/>
        <stop stop-opacity="1" stop-color="rgb(204,153,255)" offset="100%"/>
      </linearGradient>
      <linearGradient x1="330" gradientUnits="userSpaceOnUse" x2="350" y1="145.3333" y2="145.3333" id="linearGradient22" spreadMethod="reflect">
        <stop stop-opacity="1" stop-color="rgb(255,204,0)" offset="0%"/>
        <stop stop-opacity="1" stop-color="rgb(204,153,255)" offset="100%"/>
      </linearGradient>
      <linearGradient x1="376.25" gradientUnits="userSpaceOnUse" x2="396.25" y1="145.3333" y2="145.3333" id="linearGradient23" spreadMethod="reflect">
        <stop stop-opacity="1" stop-color="rgb(255,204,0)" offset="0%"/>
        <stop stop-opacity="1" stop-color="rgb(204,153,255)" offset="100%"/>
      </linearGradient>
      <linearGradient x1="170.3333" gradientUnits="userSpaceOnUse" x2="195" y1="221.5" y2="221.5" id="linearGradient24" spreadMethod="reflect">
        <stop stop-opacity="1" stop-color="rgb(255,204,0)" offset="0%"/>
        <stop stop-opacity="1" stop-color="rgb(204,153,255)" offset="100%"/>
      </linearGradient>
      <linearGradient x1="332.3333" gradientUnits="userSpaceOnUse" x2="357" y1="106" y2="106" id="linearGradient25" spreadMethod="reflect">
        <stop stop-opacity="1" stop-color="rgb(255,204,0)" offset="0%"/>
        <stop stop-opacity="1" stop-color="rgb(204,153,255)" offset="100%"/>
      </linearGradient>
      <linearGradient x1="379.8333" gradientUnits="userSpaceOnUse" x2="404.5" y1="106" y2="106" id="linearGradient26" spreadMethod="reflect">
        <stop stop-opacity="1" stop-color="rgb(255,204,0)" offset="0%"/>
        <stop stop-opacity="1" stop-color="rgb(204,153,255)" offset="100%"/>
      </linearGradient>
      <clipPath clipPathUnits="userSpaceOnUse" id="clipPath1">
        <path d="M0 0 L434 0 L434 407 L0 407 L0 0 Z"/>
      </clipPath>
      <clipPath clipPathUnits="userSpaceOnUse" id="clipPath2">
        <path d="M-11 -101 L423 -101 L423 306 L-11 306 L-11 -101 Z"/>
      </clipPath>
    </defs>
    <g fill="white" text-rendering="geometricPrecision" shape-rendering="geometricPrecision" transform="translate(11,101)" stroke="white">
      <rect x="-11" width="434" height="407" y="-101" clip-path="url(#clipPath2)" stroke="none"/>
    </g>
    <g fill="url(#linearGradient1)" text-rendering="geometricPrecision" shape-rendering="geometricPrecision" transform="matrix(1,0,0,1,11,101)" stroke="url(#linearGradient1)">
      <rect x="14" width="30" height="30" y="-12" clip-path="url(#clipPath2)" stroke="none"/>
    </g>
    <g text-rendering="geometricPrecision" stroke-miterlimit="1.45" shape-rendering="geometricPrecision" transform="matrix(1,0,0,1,11,101)" stroke-linecap="butt">
      <rect fill="none" x="14" width="30" height="30" y="-12" clip-path="url(#clipPath2)"/>
      <text x="15.6523" xml:space="preserve" y="7.7139" clip-path="url(#clipPath2)" font-family="sans-serif" stroke="none">head</text>
    </g>
    <g fill="url(#linearGradient2)" text-rendering="geometricPrecision" shape-rendering="geometricPrecision" transform="matrix(1,0,0,1,11,101)" stroke="url(#linearGradient2)">
      <path d="M29 -30 L34.7402 -42.4045 L46.6777 -38.1522 L42.8582 -51.4425 L54 -57.8333 L42.8582 -64.2241 L46.6777 -77.5145 L34.7402 -73.2621 L29 -85.6667 L23.2597 -73.2621 L11.3223 -77.5145 L15.1418 -64.2241 L4 -57.8333 L15.1418 -51.4425 L11.3223 -38.1522 L23.2597 -42.4045 Z" fill-rule="evenodd" clip-path="url(#clipPath2)" stroke="none"/>
    </g>
    <g text-rendering="geometricPrecision" stroke-miterlimit="1.45" shape-rendering="geometricPrecision" transform="matrix(1,0,0,1,11,101)" stroke-linecap="butt">
      <path fill="none" d="M29 -30 L34.7402 -42.4045 L46.6777 -38.1522 L42.8582 -51.4425 L54 -57.8333 L42.8582 -64.2241 L46.6777 -77.5145 L34.7402 -73.2621 L29 -85.6667 L23.2597 -73.2621 L11.3223 -77.5145 L15.1418 -64.2241 L4 -57.8333 L15.1418 -51.4425 L11.3223 -38.1522 L23.2597 -42.4045 Z" fill-rule="evenodd" clip-path="url(#clipPath2)"/>
      <text x="12.667" xml:space="preserve" y="-53.1195" clip-path="url(#clipPath2)" font-family="sans-serif" stroke="none">HTML</text>
    </g>
    <g fill="url(#linearGradient3)" text-rendering="geometricPrecision" shape-rendering="geometricPrecision" transform="matrix(1,0,0,1,11,101)" stroke="url(#linearGradient3)">
      <rect x="73" width="30" height="30" y="-12" clip-path="url(#clipPath2)" stroke="none"/>
    </g>
    <g text-rendering="geometricPrecision" stroke-miterlimit="1.45" shape-rendering="geometricPrecision" transform="matrix(1,0,0,1,11,101)" stroke-linecap="butt">
      <rect fill="none" x="73" width="30" height="30" y="-12" clip-path="url(#clipPath2)"/>
      <text x="74.9893" xml:space="preserve" y="7.7139" clip-path="url(#clipPath2)" font-family="sans-serif" stroke="none">body</text>
    </g>
    <g fill="url(#linearGradient4)" text-rendering="geometricPrecision" shape-rendering="geometricPrecision" transform="matrix(1,0,0,1,11,101)" stroke="url(#linearGradient4)">
      <rect x="14" width="30" height="30" y="27.3333" clip-path="url(#clipPath2)" stroke="none"/>
    </g>
    <g text-rendering="geometricPrecision" stroke-miterlimit="1.45" shape-rendering="geometricPrecision" transform="matrix(1,0,0,1,11,101)" stroke-linecap="butt">
      <rect fill="none" x="14" width="30" height="30" y="27.3333" clip-path="url(#clipPath2)"/>
      <text x="15.6611" xml:space="preserve" y="47.0472" clip-path="url(#clipPath2)" font-family="sans-serif" stroke="none">meta</text>
    </g>
    <g fill="url(#linearGradient5)" text-rendering="geometricPrecision" shape-rendering="geometricPrecision" transform="matrix(1,0,0,1,11,101)" stroke="url(#linearGradient5)">
      <rect x="66" width="37" height="30" y="27.3333" clip-path="url(#clipPath2)" stroke="none"/>
    </g>
    <g text-rendering="geometricPrecision" stroke-miterlimit="1.45" shape-rendering="geometricPrecision" transform="matrix(1,0,0,1,11,101)" stroke-linecap="butt">
      <rect fill="none" x="66" width="37" height="30" y="27.3333" clip-path="url(#clipPath2)"/>
      <text x="65.8174" xml:space="preserve" y="47.0472" clip-path="url(#clipPath2)" font-family="sans-serif" stroke="none">header</text>
    </g>
    <g fill="url(#linearGradient6)" text-rendering="geometricPrecision" shape-rendering="geometricPrecision" transform="matrix(1,0,0,1,11,101)" stroke="url(#linearGradient6)">
      <rect x="73" width="30" height="30" y="66.6667" clip-path="url(#clipPath2)" stroke="none"/>
    </g>
    <g text-rendering="geometricPrecision" stroke-miterlimit="1.45" shape-rendering="geometricPrecision" transform="matrix(1,0,0,1,11,101)" stroke-linecap="butt">
      <rect fill="none" x="73" width="30" height="30" y="66.6667" clip-path="url(#clipPath2)"/>
      <text x="74.9893" xml:space="preserve" y="86.3805" clip-path="url(#clipPath2)" font-family="sans-serif" stroke="none">span</text>
    </g>
    <g fill="url(#linearGradient7)" text-rendering="geometricPrecision" shape-rendering="geometricPrecision" transform="matrix(1,0,0,1,11,101)" stroke="url(#linearGradient7)">
      <rect x="120" width="30" height="30" y="27.3333" clip-path="url(#clipPath2)" stroke="none"/>
    </g>
    <g text-rendering="geometricPrecision" stroke-miterlimit="1.45" shape-rendering="geometricPrecision" transform="matrix(1,0,0,1,11,101)" stroke-linecap="butt">
      <rect fill="none" x="120" width="30" height="30" y="27.3333" clip-path="url(#clipPath2)"/>
      <text x="121.9951" xml:space="preserve" y="47.0472" clip-path="url(#clipPath2)" font-family="sans-serif" stroke="none">main</text>
    </g>
    <g fill="url(#linearGradient8)" text-rendering="geometricPrecision" shape-rendering="geometricPrecision" transform="matrix(1,0,0,1,11,101)" stroke="url(#linearGradient8)">
      <rect x="120" width="47" height="30" y="66.6667" clip-path="url(#clipPath2)" stroke="none"/>
    </g>
    <g text-rendering="geometricPrecision" stroke-miterlimit="1.45" shape-rendering="geometricPrecision" transform="matrix(1,0,0,1,11,101)" stroke-linecap="butt">
      <rect fill="none" x="120" width="47" height="30" y="66.6667" clip-path="url(#clipPath2)"/>
      <text x="124.4893" xml:space="preserve" y="86.3805" clip-path="url(#clipPath2)" font-family="sans-serif" stroke="none">section</text>
    </g>
    <g fill="url(#linearGradient9)" text-rendering="geometricPrecision" shape-rendering="geometricPrecision" transform="matrix(1,0,0,1,11,101)" stroke="url(#linearGradient9)">
      <rect x="280.75" width="30" height="30" y="27.3333" clip-path="url(#clipPath2)" stroke="none"/>
    </g>
    <g text-rendering="geometricPrecision" stroke-miterlimit="1.45" shape-rendering="geometricPrecision" transform="matrix(1,0,0,1,11,101)" stroke-linecap="butt">
      <rect fill="none" x="280.75" width="30" height="30" y="27.3333" clip-path="url(#clipPath2)"/>
      <text x="280.4072" xml:space="preserve" y="47.0472" clip-path="url(#clipPath2)" font-family="sans-serif" stroke="none">footer</text>
    </g>
    <g fill="url(#linearGradient10)" text-rendering="geometricPrecision" shape-rendering="geometricPrecision" transform="matrix(1,0,0,1,11,101)" stroke="url(#linearGradient10)">
      <rect x="210" width="50" height="30" y="66.6667" clip-path="url(#clipPath2)" stroke="none"/>
    </g>
    <g text-rendering="geometricPrecision" stroke-miterlimit="1.45" shape-rendering="geometricPrecision" transform="matrix(1,0,0,1,11,101)" stroke-linecap="butt">
      <rect fill="none" x="210" width="50" height="30" y="66.6667" clip-path="url(#clipPath2)"/>
      <text x="209.3154" xml:space="preserve" y="86.3805" clip-path="url(#clipPath2)" font-family="sans-serif" stroke="none">section#2</text>
    </g>
    <g fill="url(#linearGradient11)" text-rendering="geometricPrecision" shape-rendering="geometricPrecision" transform="matrix(1,0,0,1,11,101)" stroke="url(#linearGradient11)">
      <rect x="120" width="30" height="30" y="106" clip-path="url(#clipPath2)" stroke="none"/>
    </g>
    <g text-rendering="geometricPrecision" stroke-miterlimit="1.45" shape-rendering="geometricPrecision" transform="matrix(1,0,0,1,11,101)" stroke-linecap="butt">
      <rect fill="none" x="120" width="30" height="30" y="106" clip-path="url(#clipPath2)"/>
      <text x="128.3262" xml:space="preserve" y="125.7139" clip-path="url(#clipPath2)" font-family="sans-serif" stroke="none">h2</text>
    </g>
    <g fill="url(#linearGradient12)" text-rendering="geometricPrecision" shape-rendering="geometricPrecision" transform="matrix(1,0,0,1,11,101)" stroke="url(#linearGradient12)">
      <rect x="120" width="30" height="30" y="183" clip-path="url(#clipPath2)" stroke="none"/>
    </g>
    <g text-rendering="geometricPrecision" stroke-miterlimit="1.45" shape-rendering="geometricPrecision" transform="matrix(1,0,0,1,11,101)" stroke-linecap="butt">
      <rect fill="none" x="120" width="30" height="30" y="183" clip-path="url(#clipPath2)"/>
      <text x="127.3301" xml:space="preserve" y="202.7139" clip-path="url(#clipPath2)" font-family="sans-serif" stroke="none">div</text>
    </g>
    <g fill="url(#linearGradient13)" text-rendering="geometricPrecision" shape-rendering="geometricPrecision" transform="matrix(1,0,0,1,11,101)" stroke="url(#linearGradient13)">
      <rect x="120" width="30" height="30" y="144.5" clip-path="url(#clipPath2)" stroke="none"/>
    </g>
    <g text-rendering="geometricPrecision" stroke-miterlimit="1.45" shape-rendering="geometricPrecision" transform="matrix(1,0,0,1,11,101)" stroke-linecap="butt">
      <rect fill="none" x="120" width="30" height="30" y="144.5" clip-path="url(#clipPath2)"/>
      <text x="128.3262" xml:space="preserve" y="164.2139" clip-path="url(#clipPath2)" font-family="sans-serif" stroke="none">h3</text>
    </g>
    <g fill="url(#linearGradient14)" text-rendering="geometricPrecision" shape-rendering="geometricPrecision" transform="matrix(1,0,0,1,11,101)" stroke="url(#linearGradient14)">
      <rect x="120" width="30" height="30" y="221.5" clip-path="url(#clipPath2)" stroke="none"/>
    </g>
    <g text-rendering="geometricPrecision" stroke-miterlimit="1.45" shape-rendering="geometricPrecision" transform="matrix(1,0,0,1,11,101)" stroke-linecap="butt">
      <rect fill="none" x="120" width="30" height="30" y="221.5" clip-path="url(#clipPath2)"/>
      <text x="131.6631" xml:space="preserve" y="241.2139" clip-path="url(#clipPath2)" font-family="sans-serif" stroke="none">p</text>
    </g>
    <g fill="url(#linearGradient15)" text-rendering="geometricPrecision" shape-rendering="geometricPrecision" transform="matrix(1,0,0,1,11,101)" stroke="url(#linearGradient15)">
      <rect x="158" width="30" height="30" y="260" clip-path="url(#clipPath2)" stroke="none"/>
    </g>
    <g text-rendering="geometricPrecision" stroke-miterlimit="1.45" shape-rendering="geometricPrecision" transform="matrix(1,0,0,1,11,101)" stroke-linecap="butt">
      <rect fill="none" x="158" width="30" height="30" y="260" clip-path="url(#clipPath2)"/>
      <text x="159.9893" xml:space="preserve" y="279.7139" clip-path="url(#clipPath2)" font-family="sans-serif" stroke="none">span</text>
    </g>
    <g fill="url(#linearGradient16)" text-rendering="geometricPrecision" shape-rendering="geometricPrecision" transform="matrix(1,0,0,1,11,101)" stroke="url(#linearGradient16)">
      <rect x="199" width="30" height="30" y="260" clip-path="url(#clipPath2)" stroke="none"/>
    </g>
    <g text-rendering="geometricPrecision" stroke-miterlimit="1.45" shape-rendering="geometricPrecision" transform="matrix(1,0,0,1,11,101)" stroke-linecap="butt">
      <rect fill="none" x="199" width="30" height="30" y="260" clip-path="url(#clipPath2)"/>
      <text x="207.3262" xml:space="preserve" y="279.7139" clip-path="url(#clipPath2)" font-family="sans-serif" stroke="none">h1</text>
    </g>
    <g fill="url(#linearGradient17)" text-rendering="geometricPrecision" shape-rendering="geometricPrecision" transform="matrix(1,0,0,1,11,101)" stroke="url(#linearGradient17)">
      <rect x="210" width="30" height="30" y="106" clip-path="url(#clipPath2)" stroke="none"/>
    </g>
    <g text-rendering="geometricPrecision" stroke-miterlimit="1.45" shape-rendering="geometricPrecision" transform="matrix(1,0,0,1,11,101)" stroke-linecap="butt">
      <rect fill="none" x="210" width="30" height="30" y="106" clip-path="url(#clipPath2)"/>
      <text x="221.6631" xml:space="preserve" y="125.7139" clip-path="url(#clipPath2)" font-family="sans-serif" stroke="none">p</text>
    </g>
    <g fill="url(#linearGradient18)" text-rendering="geometricPrecision" shape-rendering="geometricPrecision" transform="matrix(1,0,0,1,11,101)" stroke="url(#linearGradient18)">
      <rect x="210" width="30" height="30" y="144.5" clip-path="url(#clipPath2)" stroke="none"/>
    </g>
    <g text-rendering="geometricPrecision" stroke-miterlimit="1.45" shape-rendering="geometricPrecision" transform="matrix(1,0,0,1,11,101)" stroke-linecap="butt">
      <rect fill="none" x="210" width="30" height="30" y="144.5" clip-path="url(#clipPath2)"/>
      <text x="218.3262" xml:space="preserve" y="164.2139" clip-path="url(#clipPath2)" font-family="sans-serif" stroke="none">h1</text>
    </g>
    <g fill="url(#linearGradient19)" text-rendering="geometricPrecision" shape-rendering="geometricPrecision" transform="matrix(1,0,0,1,11,101)" stroke="url(#linearGradient19)">
      <rect x="210" width="30" height="30" y="183" clip-path="url(#clipPath2)" stroke="none"/>
    </g>
    <g text-rendering="geometricPrecision" stroke-miterlimit="1.45" shape-rendering="geometricPrecision" transform="matrix(1,0,0,1,11,101)" stroke-linecap="butt">
      <rect fill="none" x="210" width="30" height="30" y="183" clip-path="url(#clipPath2)"/>
      <text x="221.6631" xml:space="preserve" y="202.7139" clip-path="url(#clipPath2)" font-family="sans-serif" stroke="none">p</text>
    </g>
    <g fill="url(#linearGradient20)" text-rendering="geometricPrecision" shape-rendering="geometricPrecision" transform="matrix(1,0,0,1,11,101)" stroke="url(#linearGradient20)">
      <rect x="280.75" width="50" height="30" y="66.6667" clip-path="url(#clipPath2)" stroke="none"/>
    </g>
    <g text-rendering="geometricPrecision" stroke-miterlimit="1.45" shape-rendering="geometricPrecision" transform="matrix(1,0,0,1,11,101)" stroke-linecap="butt">
      <rect fill="none" x="280.75" width="50" height="30" y="66.6667" clip-path="url(#clipPath2)"/>
      <text x="298.0801" xml:space="preserve" y="86.3805" clip-path="url(#clipPath2)" font-family="sans-serif" stroke="none">div</text>
    </g>
    <g fill="url(#linearGradient21)" text-rendering="geometricPrecision" shape-rendering="geometricPrecision" transform="matrix(1,0,0,1,11,101)" stroke="url(#linearGradient21)">
      <rect x="280.75" width="30" height="30" y="106" clip-path="url(#clipPath2)" stroke="none"/>
    </g>
    <g text-rendering="geometricPrecision" stroke-miterlimit="1.45" shape-rendering="geometricPrecision" transform="matrix(1,0,0,1,11,101)" stroke-linecap="butt">
      <rect fill="none" x="280.75" width="30" height="30" y="106" clip-path="url(#clipPath2)"/>
      <text x="289.0762" xml:space="preserve" y="125.7139" clip-path="url(#clipPath2)" font-family="sans-serif" stroke="none">h1</text>
    </g>
    <g fill="url(#linearGradient22)" text-rendering="geometricPrecision" shape-rendering="geometricPrecision" transform="matrix(1,0,0,1,11,101)" stroke="url(#linearGradient22)">
      <rect x="320" width="30" height="30" y="145.3333" clip-path="url(#clipPath2)" stroke="none"/>
    </g>
    <g text-rendering="geometricPrecision" stroke-miterlimit="1.45" shape-rendering="geometricPrecision" transform="matrix(1,0,0,1,11,101)" stroke-linecap="butt">
      <rect fill="none" x="320" width="30" height="30" y="145.3333" clip-path="url(#clipPath2)"/>
      <text x="321.9893" xml:space="preserve" y="165.0472" clip-path="url(#clipPath2)" font-family="sans-serif" stroke="none">span</text>
    </g>
    <g fill="url(#linearGradient23)" text-rendering="geometricPrecision" shape-rendering="geometricPrecision" transform="matrix(1,0,0,1,11,101)" stroke="url(#linearGradient23)">
      <rect x="366.25" width="30" height="30" y="145.3333" clip-path="url(#clipPath2)" stroke="none"/>
    </g>
    <g text-rendering="geometricPrecision" stroke-miterlimit="1.45" shape-rendering="geometricPrecision" transform="matrix(1,0,0,1,11,101)" stroke-linecap="butt">
      <rect fill="none" x="366.25" width="30" height="30" y="145.3333" clip-path="url(#clipPath2)"/>
      <text x="368.2393" xml:space="preserve" y="165.0472" clip-path="url(#clipPath2)" font-family="sans-serif" stroke="none">code</text>
    </g>
    <g fill="url(#linearGradient24)" text-rendering="geometricPrecision" shape-rendering="geometricPrecision" transform="matrix(1,0,0,1,11,101)" stroke="url(#linearGradient24)">
      <rect x="158" width="37" height="30" y="221.5" clip-path="url(#clipPath2)" stroke="none"/>
    </g>
    <g text-rendering="geometricPrecision" stroke-miterlimit="1.45" shape-rendering="geometricPrecision" transform="matrix(1,0,0,1,11,101)" stroke-linecap="butt">
      <rect fill="none" x="158" width="37" height="30" y="221.5" clip-path="url(#clipPath2)"/>
      <text x="157.4893" xml:space="preserve" y="241.2139" clip-path="url(#clipPath2)" font-family="sans-serif" stroke="none">section</text>
    </g>
    <g fill="url(#linearGradient25)" text-rendering="geometricPrecision" shape-rendering="geometricPrecision" transform="matrix(1,0,0,1,11,101)" stroke="url(#linearGradient25)">
      <rect x="320" width="37" height="30" y="106" clip-path="url(#clipPath2)" stroke="none"/>
    </g>
    <g text-rendering="geometricPrecision" stroke-miterlimit="1.45" shape-rendering="geometricPrecision" transform="matrix(1,0,0,1,11,101)" stroke-linecap="butt">
      <rect fill="none" x="320" width="37" height="30" y="106" clip-path="url(#clipPath2)"/>
      <text x="319.4893" xml:space="preserve" y="125.7139" clip-path="url(#clipPath2)" font-family="sans-serif" stroke="none">section</text>
    </g>
    <g fill="url(#linearGradient26)" text-rendering="geometricPrecision" shape-rendering="geometricPrecision" transform="matrix(1,0,0,1,11,101)" stroke="url(#linearGradient26)">
      <rect x="367.5" width="37" height="30" y="106" clip-path="url(#clipPath2)" stroke="none"/>
    </g>
    <g text-rendering="geometricPrecision" stroke-miterlimit="1.45" shape-rendering="geometricPrecision" transform="matrix(1,0,0,1,11,101)" stroke-linecap="butt">
      <rect fill="none" x="367.5" width="37" height="30" y="106" clip-path="url(#clipPath2)"/>
      <text x="366.9893" xml:space="preserve" y="125.7139" clip-path="url(#clipPath2)" font-family="sans-serif" stroke="none">section</text>
    </g>
  </g>
</svg>
